<mxfile host="app.diagrams.net" modified="2022-02-21T08:40:00.911Z" agent="5.0 (Windows NT 10.0; Win64; x64) AppleWebKit/537.36 (KHTML, like Gecko) Chrome/98.0.4758.102 Safari/537.36" etag="5tP9KYO-PJLrSkc7LpPe" version="16.6.1" type="github">
  <diagram id="VnctqEvDakH-E4vY3DTq" name="Page-1">
    <mxGraphModel dx="1422" dy="849" grid="1" gridSize="10" guides="1" tooltips="1" connect="1" arrows="1" fold="1" page="1" pageScale="1" pageWidth="827" pageHeight="1169" math="0" shadow="0">
      <root>
        <mxCell id="0" />
        <mxCell id="1" parent="0" />
        <mxCell id="g4kfWWqlD84Wy7lia6xk-1" value="&lt;font style=&quot;font-size: 12px&quot;&gt;典型SOC架构&lt;/font&gt;" style="rounded=0;whiteSpace=wrap;html=1;fontSize=8;align=left;verticalAlign=top;" vertex="1" parent="1">
          <mxGeometry x="20" y="50" width="910" height="480" as="geometry" />
        </mxCell>
        <mxCell id="g4kfWWqlD84Wy7lia6xk-2" value="CPU Clusters" style="rounded=0;whiteSpace=wrap;html=1;align=left;verticalAlign=top;" vertex="1" parent="1">
          <mxGeometry x="33" y="70" width="357" height="180" as="geometry" />
        </mxCell>
        <mxCell id="g4kfWWqlD84Wy7lia6xk-3" value="Cortex-A53_0" style="rounded=0;whiteSpace=wrap;html=1;align=left;horizontal=1;verticalAlign=top;" vertex="1" parent="1">
          <mxGeometry x="36" y="97.5" width="110" height="150" as="geometry" />
        </mxCell>
        <mxCell id="g4kfWWqlD84Wy7lia6xk-4" value="" style="rounded=0;whiteSpace=wrap;html=1;align=left;verticalAlign=top;fontSize=9;" vertex="1" parent="1">
          <mxGeometry x="70" y="122.5" width="70" height="60" as="geometry" />
        </mxCell>
        <mxCell id="g4kfWWqlD84Wy7lia6xk-5" value="" style="rounded=0;whiteSpace=wrap;html=1;align=left;verticalAlign=top;fontSize=9;" vertex="1" parent="1">
          <mxGeometry x="60" y="130.5" width="70" height="60" as="geometry" />
        </mxCell>
        <mxCell id="g4kfWWqlD84Wy7lia6xk-6" value="" style="rounded=0;whiteSpace=wrap;html=1;align=left;verticalAlign=top;fontSize=9;" vertex="1" parent="1">
          <mxGeometry x="50" y="138.5" width="70" height="60" as="geometry" />
        </mxCell>
        <mxCell id="g4kfWWqlD84Wy7lia6xk-7" value="&lt;span style=&quot;font-size: 10px&quot;&gt;A53-Core&lt;/span&gt;" style="rounded=0;whiteSpace=wrap;html=1;align=left;verticalAlign=top;fontSize=9;" vertex="1" parent="1">
          <mxGeometry x="40" y="147.5" width="70" height="60" as="geometry" />
        </mxCell>
        <mxCell id="g4kfWWqlD84Wy7lia6xk-8" value="GIC" style="rounded=0;whiteSpace=wrap;html=1;fontSize=10;" vertex="1" parent="1">
          <mxGeometry x="521" y="437.9" width="28" height="48" as="geometry" />
        </mxCell>
        <mxCell id="g4kfWWqlD84Wy7lia6xk-9" value="" style="shape=flexArrow;endArrow=classic;startArrow=classic;html=1;rounded=0;fontSize=10;startWidth=26;startSize=4;width=26;" edge="1" parent="1">
          <mxGeometry width="100" height="100" relative="1" as="geometry">
            <mxPoint x="40" y="310" as="sourcePoint" />
            <mxPoint x="690" y="310" as="targetPoint" />
          </mxGeometry>
        </mxCell>
        <mxCell id="g4kfWWqlD84Wy7lia6xk-10" value="Main Bus (AXI-128bit)" style="edgeLabel;html=1;align=center;verticalAlign=middle;resizable=0;points=[];fontSize=13;" vertex="1" connectable="0" parent="g4kfWWqlD84Wy7lia6xk-9">
          <mxGeometry x="-0.0987" y="-2" relative="1" as="geometry">
            <mxPoint as="offset" />
          </mxGeometry>
        </mxCell>
        <mxCell id="g4kfWWqlD84Wy7lia6xk-11" value="SRAM" style="rounded=0;whiteSpace=wrap;html=1;fontSize=10;" vertex="1" parent="1">
          <mxGeometry x="498.5" y="190" width="60" height="60" as="geometry" />
        </mxCell>
        <mxCell id="g4kfWWqlD84Wy7lia6xk-12" value="NorFlash" style="rounded=0;whiteSpace=wrap;html=1;fontSize=10;" vertex="1" parent="1">
          <mxGeometry x="65" y="420" width="70" height="60" as="geometry" />
        </mxCell>
        <mxCell id="g4kfWWqlD84Wy7lia6xk-13" value="DDR0" style="rounded=0;whiteSpace=wrap;html=1;fontSize=10;" vertex="1" parent="1">
          <mxGeometry x="290" y="435" width="70" height="55" as="geometry" />
        </mxCell>
        <mxCell id="g4kfWWqlD84Wy7lia6xk-14" value="" style="shape=flexArrow;endArrow=classic;startArrow=classic;html=1;rounded=0;fontSize=10;" edge="1" parent="1">
          <mxGeometry width="100" height="100" relative="1" as="geometry">
            <mxPoint x="50" y="370" as="sourcePoint" />
            <mxPoint x="250" y="370" as="targetPoint" />
          </mxGeometry>
        </mxCell>
        <mxCell id="g4kfWWqlD84Wy7lia6xk-15" value="FlashBus(AXI-128bit)" style="edgeLabel;html=1;align=center;verticalAlign=middle;resizable=0;points=[];fontSize=10;" vertex="1" connectable="0" parent="g4kfWWqlD84Wy7lia6xk-14">
          <mxGeometry x="-0.0987" y="-2" relative="1" as="geometry">
            <mxPoint y="-2" as="offset" />
          </mxGeometry>
        </mxCell>
        <mxCell id="g4kfWWqlD84Wy7lia6xk-16" value="NANDC&lt;br&gt;（NandFlash)" style="rounded=0;whiteSpace=wrap;html=1;fontSize=10;" vertex="1" parent="1">
          <mxGeometry x="155" y="420" width="80" height="60" as="geometry" />
        </mxCell>
        <mxCell id="g4kfWWqlD84Wy7lia6xk-17" value="DMA" style="rounded=0;whiteSpace=wrap;html=1;fontSize=10;" vertex="1" parent="1">
          <mxGeometry x="482" y="437.9" width="28" height="48" as="geometry" />
        </mxCell>
        <mxCell id="g4kfWWqlD84Wy7lia6xk-18" value="" style="shape=flexArrow;endArrow=classic;startArrow=classic;html=1;rounded=0;fontSize=10;" edge="1" parent="1">
          <mxGeometry width="100" height="100" relative="1" as="geometry">
            <mxPoint x="270" y="400" as="sourcePoint" />
            <mxPoint x="470" y="400" as="targetPoint" />
          </mxGeometry>
        </mxCell>
        <mxCell id="g4kfWWqlD84Wy7lia6xk-19" value="DDRBus(AXI-128bit)" style="edgeLabel;html=1;align=center;verticalAlign=middle;resizable=0;points=[];fontSize=10;" vertex="1" connectable="0" parent="g4kfWWqlD84Wy7lia6xk-18">
          <mxGeometry x="-0.0987" y="-2" relative="1" as="geometry">
            <mxPoint y="-2" as="offset" />
          </mxGeometry>
        </mxCell>
        <mxCell id="g4kfWWqlD84Wy7lia6xk-20" value="MMU" style="rounded=0;whiteSpace=wrap;html=1;fontSize=10;" vertex="1" parent="1">
          <mxGeometry x="40" y="177.5" width="70" height="15" as="geometry" />
        </mxCell>
        <mxCell id="g4kfWWqlD84Wy7lia6xk-21" value="IOMMU/SMMU" style="rounded=0;whiteSpace=wrap;html=1;fontSize=12;" vertex="1" parent="1">
          <mxGeometry x="480" y="345" width="220" height="15" as="geometry" />
        </mxCell>
        <mxCell id="g4kfWWqlD84Wy7lia6xk-22" value="" style="endArrow=classic;startArrow=classic;html=1;rounded=0;fontSize=10;entryX=0.5;entryY=0;entryDx=0;entryDy=0;" edge="1" parent="1" target="g4kfWWqlD84Wy7lia6xk-21">
          <mxGeometry width="50" height="50" relative="1" as="geometry">
            <mxPoint x="590" y="320" as="sourcePoint" />
            <mxPoint x="655" y="177.5" as="targetPoint" />
          </mxGeometry>
        </mxCell>
        <mxCell id="g4kfWWqlD84Wy7lia6xk-23" value="PCIE" style="rounded=0;whiteSpace=wrap;html=1;fontSize=10;" vertex="1" parent="1">
          <mxGeometry x="568.5" y="462.0000000000001" width="28" height="48" as="geometry" />
        </mxCell>
        <mxCell id="g4kfWWqlD84Wy7lia6xk-24" value="" style="endArrow=classic;startArrow=classic;html=1;rounded=0;fontSize=10;entryX=0.5;entryY=1;entryDx=0;entryDy=0;" edge="1" parent="1" target="g4kfWWqlD84Wy7lia6xk-11">
          <mxGeometry width="50" height="50" relative="1" as="geometry">
            <mxPoint x="528.5" y="298" as="sourcePoint" />
            <mxPoint x="717" y="257.5" as="targetPoint" />
          </mxGeometry>
        </mxCell>
        <mxCell id="g4kfWWqlD84Wy7lia6xk-25" value="" style="endArrow=classic;startArrow=classic;html=1;rounded=0;fontSize=10;entryX=0.5;entryY=0;entryDx=0;entryDy=0;exitX=0.25;exitY=1;exitDx=0;exitDy=0;" edge="1" parent="1" source="g4kfWWqlD84Wy7lia6xk-50" target="g4kfWWqlD84Wy7lia6xk-8">
          <mxGeometry width="50" height="50" relative="1" as="geometry">
            <mxPoint x="560" y="407.9" as="sourcePoint" />
            <mxPoint x="563" y="552.9" as="targetPoint" />
          </mxGeometry>
        </mxCell>
        <mxCell id="g4kfWWqlD84Wy7lia6xk-26" value="" style="endArrow=classic;startArrow=classic;html=1;rounded=0;fontSize=10;entryX=0.5;entryY=1;entryDx=0;entryDy=0;" edge="1" parent="1" target="g4kfWWqlD84Wy7lia6xk-2">
          <mxGeometry width="50" height="50" relative="1" as="geometry">
            <mxPoint x="212" y="300" as="sourcePoint" />
            <mxPoint x="485" y="260" as="targetPoint" />
          </mxGeometry>
        </mxCell>
        <mxCell id="g4kfWWqlD84Wy7lia6xk-27" value="" style="endArrow=classic;startArrow=classic;html=1;rounded=0;fontSize=10;" edge="1" parent="1">
          <mxGeometry width="50" height="50" relative="1" as="geometry">
            <mxPoint x="145" y="363" as="sourcePoint" />
            <mxPoint x="145" y="323" as="targetPoint" />
          </mxGeometry>
        </mxCell>
        <mxCell id="g4kfWWqlD84Wy7lia6xk-28" value="localbus" style="endArrow=classic;startArrow=classic;html=1;rounded=0;fontSize=10;" edge="1" parent="1">
          <mxGeometry width="50" height="50" relative="1" as="geometry">
            <mxPoint x="100" y="420" as="sourcePoint" />
            <mxPoint x="100" y="380" as="targetPoint" />
          </mxGeometry>
        </mxCell>
        <mxCell id="g4kfWWqlD84Wy7lia6xk-29" value="" style="endArrow=classic;startArrow=classic;html=1;rounded=0;fontSize=10;" edge="1" parent="1">
          <mxGeometry width="50" height="50" relative="1" as="geometry">
            <mxPoint x="195" y="420" as="sourcePoint" />
            <mxPoint x="195" y="380" as="targetPoint" />
          </mxGeometry>
        </mxCell>
        <mxCell id="g4kfWWqlD84Wy7lia6xk-30" value="DDR1" style="rounded=0;whiteSpace=wrap;html=1;fontSize=10;" vertex="1" parent="1">
          <mxGeometry x="390" y="435" width="70" height="55" as="geometry" />
        </mxCell>
        <mxCell id="g4kfWWqlD84Wy7lia6xk-31" value="" style="endArrow=classic;startArrow=classic;html=1;rounded=0;fontSize=10;" edge="1" parent="1">
          <mxGeometry width="50" height="50" relative="1" as="geometry">
            <mxPoint x="424.5" y="350" as="sourcePoint" />
            <mxPoint x="424.5" y="322" as="targetPoint" />
          </mxGeometry>
        </mxCell>
        <mxCell id="g4kfWWqlD84Wy7lia6xk-32" value="" style="endArrow=classic;startArrow=classic;html=1;rounded=0;fontSize=10;exitX=0.5;exitY=0;exitDx=0;exitDy=0;" edge="1" parent="1" source="g4kfWWqlD84Wy7lia6xk-13">
          <mxGeometry width="50" height="50" relative="1" as="geometry">
            <mxPoint x="370" y="385" as="sourcePoint" />
            <mxPoint x="325" y="405" as="targetPoint" />
          </mxGeometry>
        </mxCell>
        <mxCell id="g4kfWWqlD84Wy7lia6xk-33" value="" style="endArrow=classic;startArrow=classic;html=1;rounded=0;fontSize=10;exitX=0.5;exitY=0;exitDx=0;exitDy=0;" edge="1" parent="1" source="g4kfWWqlD84Wy7lia6xk-30">
          <mxGeometry width="50" height="50" relative="1" as="geometry">
            <mxPoint x="335" y="445" as="sourcePoint" />
            <mxPoint x="425" y="405" as="targetPoint" />
          </mxGeometry>
        </mxCell>
        <mxCell id="g4kfWWqlD84Wy7lia6xk-34" value="" style="shape=flexArrow;endArrow=classic;startArrow=classic;html=1;rounded=0;fontSize=10;" edge="1" parent="1">
          <mxGeometry width="100" height="100" relative="1" as="geometry">
            <mxPoint x="740" y="480" as="sourcePoint" />
            <mxPoint x="740" y="125" as="targetPoint" />
          </mxGeometry>
        </mxCell>
        <mxCell id="g4kfWWqlD84Wy7lia6xk-35" value="PeriipheralBus(API-32bit)" style="edgeLabel;html=1;align=center;verticalAlign=middle;resizable=0;points=[];fontSize=10;horizontal=0;" vertex="1" connectable="0" parent="g4kfWWqlD84Wy7lia6xk-34">
          <mxGeometry x="-0.0987" y="-2" relative="1" as="geometry">
            <mxPoint y="-2" as="offset" />
          </mxGeometry>
        </mxCell>
        <mxCell id="g4kfWWqlD84Wy7lia6xk-36" value="" style="endArrow=classic;startArrow=classic;html=1;rounded=0;fontSize=10;" edge="1" parent="1">
          <mxGeometry width="50" height="50" relative="1" as="geometry">
            <mxPoint x="690" y="310" as="sourcePoint" />
            <mxPoint x="730" y="310" as="targetPoint" />
          </mxGeometry>
        </mxCell>
        <mxCell id="g4kfWWqlD84Wy7lia6xk-37" value="UART" style="rounded=0;whiteSpace=wrap;html=1;fontSize=10;horizontal=1;" vertex="1" parent="1">
          <mxGeometry x="790" y="165" width="80" height="20" as="geometry" />
        </mxCell>
        <mxCell id="g4kfWWqlD84Wy7lia6xk-38" value="" style="endArrow=classic;startArrow=classic;html=1;rounded=0;fontSize=10;" edge="1" parent="1">
          <mxGeometry width="50" height="50" relative="1" as="geometry">
            <mxPoint x="747" y="174.5" as="sourcePoint" />
            <mxPoint x="787" y="175" as="targetPoint" />
          </mxGeometry>
        </mxCell>
        <mxCell id="g4kfWWqlD84Wy7lia6xk-39" value="Cortex-M4" style="rounded=0;whiteSpace=wrap;html=1;fontSize=10;" vertex="1" parent="1">
          <mxGeometry x="410" y="187.5" width="70" height="60" as="geometry" />
        </mxCell>
        <mxCell id="g4kfWWqlD84Wy7lia6xk-40" value="" style="endArrow=classic;startArrow=classic;html=1;rounded=0;fontSize=10;entryX=0.5;entryY=1;entryDx=0;entryDy=0;" edge="1" parent="1" target="g4kfWWqlD84Wy7lia6xk-39">
          <mxGeometry width="50" height="50" relative="1" as="geometry">
            <mxPoint x="445" y="297.5" as="sourcePoint" />
            <mxPoint x="595" y="257.5" as="targetPoint" />
          </mxGeometry>
        </mxCell>
        <mxCell id="g4kfWWqlD84Wy7lia6xk-41" value="WatchDog" style="rounded=0;whiteSpace=wrap;html=1;fontSize=10;horizontal=1;" vertex="1" parent="1">
          <mxGeometry x="790" y="203.75" width="80" height="20" as="geometry" />
        </mxCell>
        <mxCell id="g4kfWWqlD84Wy7lia6xk-42" value="Timer" style="rounded=0;whiteSpace=wrap;html=1;fontSize=10;horizontal=1;" vertex="1" parent="1">
          <mxGeometry x="790" y="240" width="80" height="20" as="geometry" />
        </mxCell>
        <mxCell id="g4kfWWqlD84Wy7lia6xk-43" value="SPI" style="rounded=0;whiteSpace=wrap;html=1;fontSize=10;horizontal=1;" vertex="1" parent="1">
          <mxGeometry x="790" y="280" width="80" height="20" as="geometry" />
        </mxCell>
        <mxCell id="g4kfWWqlD84Wy7lia6xk-44" value="I2C" style="rounded=0;whiteSpace=wrap;html=1;fontSize=10;horizontal=1;" vertex="1" parent="1">
          <mxGeometry x="840" y="320" width="60" height="10" as="geometry" />
        </mxCell>
        <mxCell id="g4kfWWqlD84Wy7lia6xk-45" value="GPIO" style="rounded=0;whiteSpace=wrap;html=1;fontSize=10;horizontal=1;" vertex="1" parent="1">
          <mxGeometry x="790" y="360" width="80" height="20" as="geometry" />
        </mxCell>
        <mxCell id="g4kfWWqlD84Wy7lia6xk-46" value="ROM" style="rounded=0;whiteSpace=wrap;html=1;fontSize=10;" vertex="1" parent="1">
          <mxGeometry x="568.5" y="190" width="60" height="60" as="geometry" />
        </mxCell>
        <mxCell id="g4kfWWqlD84Wy7lia6xk-47" value="" style="endArrow=classic;startArrow=classic;html=1;rounded=0;fontSize=10;entryX=0.5;entryY=1;entryDx=0;entryDy=0;" edge="1" parent="1" target="g4kfWWqlD84Wy7lia6xk-46">
          <mxGeometry width="50" height="50" relative="1" as="geometry">
            <mxPoint x="598.5" y="300" as="sourcePoint" />
            <mxPoint x="538.5" y="260" as="targetPoint" />
          </mxGeometry>
        </mxCell>
        <mxCell id="g4kfWWqlD84Wy7lia6xk-48" value="L3 Cache" style="rounded=0;whiteSpace=wrap;html=1;fontSize=10;" vertex="1" parent="1">
          <mxGeometry x="390" y="350" width="70" height="20" as="geometry" />
        </mxCell>
        <mxCell id="g4kfWWqlD84Wy7lia6xk-49" value="" style="endArrow=classic;startArrow=classic;html=1;rounded=0;fontSize=10;" edge="1" parent="1">
          <mxGeometry width="50" height="50" relative="1" as="geometry">
            <mxPoint x="360" y="400" as="sourcePoint" />
            <mxPoint x="360" y="320" as="targetPoint" />
          </mxGeometry>
        </mxCell>
        <mxCell id="g4kfWWqlD84Wy7lia6xk-50" value="AxiBus(AXI-128)" style="rounded=0;whiteSpace=wrap;html=1;fontSize=12;" vertex="1" parent="1">
          <mxGeometry x="480" y="380" width="219.25" height="20" as="geometry" />
        </mxCell>
        <mxCell id="g4kfWWqlD84Wy7lia6xk-51" value="" style="endArrow=classic;startArrow=classic;html=1;rounded=0;fontSize=10;entryX=0.5;entryY=0;entryDx=0;entryDy=0;exitX=0.5;exitY=1;exitDx=0;exitDy=0;" edge="1" parent="1" source="g4kfWWqlD84Wy7lia6xk-21" target="g4kfWWqlD84Wy7lia6xk-50">
          <mxGeometry width="50" height="50" relative="1" as="geometry">
            <mxPoint x="570" y="370" as="sourcePoint" />
            <mxPoint x="580" y="358" as="targetPoint" />
          </mxGeometry>
        </mxCell>
        <mxCell id="g4kfWWqlD84Wy7lia6xk-52" value="ETH" style="rounded=0;whiteSpace=wrap;html=1;fontSize=10;" vertex="1" parent="1">
          <mxGeometry x="610" y="437.9" width="28" height="48" as="geometry" />
        </mxCell>
        <mxCell id="g4kfWWqlD84Wy7lia6xk-53" value="" style="endArrow=classic;startArrow=classic;html=1;rounded=0;fontSize=10;" edge="1" parent="1">
          <mxGeometry width="50" height="50" relative="1" as="geometry">
            <mxPoint x="747" y="213.25" as="sourcePoint" />
            <mxPoint x="787" y="213.75" as="targetPoint" />
          </mxGeometry>
        </mxCell>
        <mxCell id="g4kfWWqlD84Wy7lia6xk-54" value="" style="endArrow=classic;startArrow=classic;html=1;rounded=0;fontSize=10;" edge="1" parent="1">
          <mxGeometry width="50" height="50" relative="1" as="geometry">
            <mxPoint x="747" y="213.25" as="sourcePoint" />
            <mxPoint x="787" y="213.75" as="targetPoint" />
            <Array as="points">
              <mxPoint x="760" y="214" />
            </Array>
          </mxGeometry>
        </mxCell>
        <mxCell id="g4kfWWqlD84Wy7lia6xk-55" value="" style="endArrow=classic;startArrow=classic;html=1;rounded=0;fontSize=10;" edge="1" parent="1">
          <mxGeometry width="50" height="50" relative="1" as="geometry">
            <mxPoint x="750" y="249" as="sourcePoint" />
            <mxPoint x="790" y="249.5" as="targetPoint" />
            <Array as="points">
              <mxPoint x="763" y="249.75" />
            </Array>
          </mxGeometry>
        </mxCell>
        <mxCell id="g4kfWWqlD84Wy7lia6xk-56" value="" style="endArrow=classic;startArrow=classic;html=1;rounded=0;fontSize=10;" edge="1" parent="1">
          <mxGeometry width="50" height="50" relative="1" as="geometry">
            <mxPoint x="750" y="289.5" as="sourcePoint" />
            <mxPoint x="790" y="290" as="targetPoint" />
            <Array as="points">
              <mxPoint x="763" y="290.25" />
            </Array>
          </mxGeometry>
        </mxCell>
        <mxCell id="g4kfWWqlD84Wy7lia6xk-57" value="" style="endArrow=classic;startArrow=classic;html=1;rounded=0;fontSize=10;" edge="1" parent="1">
          <mxGeometry width="50" height="50" relative="1" as="geometry">
            <mxPoint x="750" y="329.5" as="sourcePoint" />
            <mxPoint x="790" y="330" as="targetPoint" />
            <Array as="points">
              <mxPoint x="763" y="330.25" />
            </Array>
          </mxGeometry>
        </mxCell>
        <mxCell id="g4kfWWqlD84Wy7lia6xk-58" value="" style="endArrow=classic;startArrow=classic;html=1;rounded=0;fontSize=10;" edge="1" parent="1">
          <mxGeometry width="50" height="50" relative="1" as="geometry">
            <mxPoint x="750" y="369" as="sourcePoint" />
            <mxPoint x="790" y="369.5" as="targetPoint" />
            <Array as="points">
              <mxPoint x="763" y="369.75" />
            </Array>
          </mxGeometry>
        </mxCell>
        <mxCell id="g4kfWWqlD84Wy7lia6xk-59" value="LocalBus" style="rounded=0;whiteSpace=wrap;html=1;fontSize=10;horizontal=1;" vertex="1" parent="1">
          <mxGeometry x="790" y="400" width="80" height="20" as="geometry" />
        </mxCell>
        <mxCell id="g4kfWWqlD84Wy7lia6xk-60" value="MDIO" style="rounded=0;whiteSpace=wrap;html=1;fontSize=10;horizontal=1;" vertex="1" parent="1">
          <mxGeometry x="790" y="435" width="80" height="20" as="geometry" />
        </mxCell>
        <mxCell id="g4kfWWqlD84Wy7lia6xk-61" value="" style="endArrow=classic;startArrow=classic;html=1;rounded=0;fontSize=10;" edge="1" parent="1">
          <mxGeometry width="50" height="50" relative="1" as="geometry">
            <mxPoint x="750" y="409.5" as="sourcePoint" />
            <mxPoint x="790" y="410" as="targetPoint" />
            <Array as="points">
              <mxPoint x="763" y="410.25" />
            </Array>
          </mxGeometry>
        </mxCell>
        <mxCell id="g4kfWWqlD84Wy7lia6xk-62" value="" style="endArrow=classic;startArrow=classic;html=1;rounded=0;fontSize=10;" edge="1" parent="1">
          <mxGeometry width="50" height="50" relative="1" as="geometry">
            <mxPoint x="750" y="444.5" as="sourcePoint" />
            <mxPoint x="790" y="445" as="targetPoint" />
            <Array as="points">
              <mxPoint x="763" y="445.25" />
            </Array>
          </mxGeometry>
        </mxCell>
        <mxCell id="g4kfWWqlD84Wy7lia6xk-63" value="&lt;font style=&quot;font-size: 10px&quot;&gt;I-C&lt;/font&gt;" style="rounded=0;whiteSpace=wrap;html=1;fontSize=7;" vertex="1" parent="1">
          <mxGeometry x="40" y="192.5" width="35" height="15" as="geometry" />
        </mxCell>
        <mxCell id="g4kfWWqlD84Wy7lia6xk-64" value="D-C" style="rounded=0;whiteSpace=wrap;html=1;fontSize=10;" vertex="1" parent="1">
          <mxGeometry x="75" y="192.5" width="35" height="15" as="geometry" />
        </mxCell>
        <mxCell id="g4kfWWqlD84Wy7lia6xk-65" value="512KB L2-Cache" style="rounded=0;whiteSpace=wrap;html=1;fontSize=10;" vertex="1" parent="1">
          <mxGeometry x="36" y="217.5" width="110" height="20" as="geometry" />
        </mxCell>
        <mxCell id="g4kfWWqlD84Wy7lia6xk-66" value="Cortex-A53_1" style="rounded=0;whiteSpace=wrap;html=1;align=left;horizontal=1;verticalAlign=top;" vertex="1" parent="1">
          <mxGeometry x="153" y="97.5" width="110" height="150" as="geometry" />
        </mxCell>
        <mxCell id="g4kfWWqlD84Wy7lia6xk-67" value="" style="rounded=0;whiteSpace=wrap;html=1;align=left;verticalAlign=top;fontSize=9;" vertex="1" parent="1">
          <mxGeometry x="187" y="122.5" width="70" height="60" as="geometry" />
        </mxCell>
        <mxCell id="g4kfWWqlD84Wy7lia6xk-68" value="" style="rounded=0;whiteSpace=wrap;html=1;align=left;verticalAlign=top;fontSize=9;" vertex="1" parent="1">
          <mxGeometry x="177" y="130.5" width="70" height="60" as="geometry" />
        </mxCell>
        <mxCell id="g4kfWWqlD84Wy7lia6xk-69" value="" style="rounded=0;whiteSpace=wrap;html=1;align=left;verticalAlign=top;fontSize=9;" vertex="1" parent="1">
          <mxGeometry x="167" y="138.5" width="70" height="60" as="geometry" />
        </mxCell>
        <mxCell id="g4kfWWqlD84Wy7lia6xk-70" value="&lt;span style=&quot;font-size: 10px&quot;&gt;A53-Core&lt;/span&gt;" style="rounded=0;whiteSpace=wrap;html=1;align=left;verticalAlign=top;fontSize=9;" vertex="1" parent="1">
          <mxGeometry x="157" y="147.5" width="70" height="60" as="geometry" />
        </mxCell>
        <mxCell id="g4kfWWqlD84Wy7lia6xk-71" value="MMU" style="rounded=0;whiteSpace=wrap;html=1;fontSize=10;" vertex="1" parent="1">
          <mxGeometry x="157" y="177.5" width="70" height="15" as="geometry" />
        </mxCell>
        <mxCell id="g4kfWWqlD84Wy7lia6xk-72" value="I-C" style="rounded=0;whiteSpace=wrap;html=1;fontSize=10;" vertex="1" parent="1">
          <mxGeometry x="157" y="192.5" width="35" height="15" as="geometry" />
        </mxCell>
        <mxCell id="g4kfWWqlD84Wy7lia6xk-73" value="D-C" style="rounded=0;whiteSpace=wrap;html=1;fontSize=10;" vertex="1" parent="1">
          <mxGeometry x="192" y="192.5" width="35" height="15" as="geometry" />
        </mxCell>
        <mxCell id="g4kfWWqlD84Wy7lia6xk-74" value="512KB L2-Cache" style="rounded=0;whiteSpace=wrap;html=1;fontSize=10;" vertex="1" parent="1">
          <mxGeometry x="153" y="217.5" width="110" height="20" as="geometry" />
        </mxCell>
        <mxCell id="g4kfWWqlD84Wy7lia6xk-75" value="Cortex-A53_2" style="rounded=0;whiteSpace=wrap;html=1;align=left;horizontal=1;verticalAlign=top;" vertex="1" parent="1">
          <mxGeometry x="272" y="97.5" width="110" height="150" as="geometry" />
        </mxCell>
        <mxCell id="g4kfWWqlD84Wy7lia6xk-76" value="" style="rounded=0;whiteSpace=wrap;html=1;align=left;verticalAlign=top;fontSize=9;" vertex="1" parent="1">
          <mxGeometry x="306" y="122.5" width="70" height="60" as="geometry" />
        </mxCell>
        <mxCell id="g4kfWWqlD84Wy7lia6xk-77" value="" style="rounded=0;whiteSpace=wrap;html=1;align=left;verticalAlign=top;fontSize=9;" vertex="1" parent="1">
          <mxGeometry x="296" y="130.5" width="70" height="60" as="geometry" />
        </mxCell>
        <mxCell id="g4kfWWqlD84Wy7lia6xk-78" value="" style="rounded=0;whiteSpace=wrap;html=1;align=left;verticalAlign=top;fontSize=9;" vertex="1" parent="1">
          <mxGeometry x="286" y="138.5" width="70" height="60" as="geometry" />
        </mxCell>
        <mxCell id="g4kfWWqlD84Wy7lia6xk-79" value="&lt;span style=&quot;font-size: 10px&quot;&gt;A53-Core&lt;/span&gt;" style="rounded=0;whiteSpace=wrap;html=1;align=left;verticalAlign=top;fontSize=9;" vertex="1" parent="1">
          <mxGeometry x="276" y="147.5" width="70" height="60" as="geometry" />
        </mxCell>
        <mxCell id="g4kfWWqlD84Wy7lia6xk-80" value="MMU" style="rounded=0;whiteSpace=wrap;html=1;fontSize=10;" vertex="1" parent="1">
          <mxGeometry x="276" y="177.5" width="70" height="15" as="geometry" />
        </mxCell>
        <mxCell id="g4kfWWqlD84Wy7lia6xk-81" value="I-C" style="rounded=0;whiteSpace=wrap;html=1;fontSize=10;" vertex="1" parent="1">
          <mxGeometry x="276" y="192.5" width="35" height="15" as="geometry" />
        </mxCell>
        <mxCell id="g4kfWWqlD84Wy7lia6xk-82" value="D-C" style="rounded=0;whiteSpace=wrap;html=1;fontSize=10;" vertex="1" parent="1">
          <mxGeometry x="311" y="192.5" width="35" height="15" as="geometry" />
        </mxCell>
        <mxCell id="g4kfWWqlD84Wy7lia6xk-83" value="512KB L2-Cache" style="rounded=0;whiteSpace=wrap;html=1;fontSize=10;" vertex="1" parent="1">
          <mxGeometry x="272" y="217.5" width="110" height="20" as="geometry" />
        </mxCell>
        <mxCell id="g4kfWWqlD84Wy7lia6xk-84" value="&lt;span style=&quot;text-align: left&quot;&gt;MachineState/Class&lt;br&gt;XXXMachineState/Class&lt;br&gt;&lt;/span&gt;" style="rounded=0;whiteSpace=wrap;html=1;fontSize=8;dashed=1;fillColor=#FFFFC0;" vertex="1" parent="1">
          <mxGeometry x="448.5" y="50" width="109" height="20" as="geometry" />
        </mxCell>
        <mxCell id="g4kfWWqlD84Wy7lia6xk-85" value="&lt;span style=&quot;text-align: left&quot;&gt;CPUTailQ cpus&lt;/span&gt;" style="rounded=0;whiteSpace=wrap;html=1;fontSize=8;dashed=1;fillColor=#f8cecc;strokeColor=#b85450;" vertex="1" parent="1">
          <mxGeometry x="165.5" y="70" width="73" height="10" as="geometry" />
        </mxCell>
        <mxCell id="g4kfWWqlD84Wy7lia6xk-86" value="&lt;span style=&quot;&quot;&gt;CPUClass/State&lt;/span&gt;&lt;br style=&quot;&quot;&gt;&lt;span style=&quot;&quot;&gt;ARMCPU/Class&lt;/span&gt;&lt;br style=&quot;&quot;&gt;&lt;span style=&quot;&quot;&gt;AArch64CPUClass&lt;/span&gt;" style="rounded=0;whiteSpace=wrap;html=1;fontSize=8;dashed=1;fillColor=#FFFFC0;align=left;" vertex="1" parent="1">
          <mxGeometry x="382" y="100.5" width="73" height="30" as="geometry" />
        </mxCell>
        <mxCell id="g4kfWWqlD84Wy7lia6xk-87" value="&lt;span style=&quot;text-align: left&quot;&gt;CPUState *current_cpu&lt;/span&gt;" style="rounded=0;whiteSpace=wrap;html=1;fontSize=8;dashed=1;fillColor=#f8cecc;strokeColor=#b85450;" vertex="1" parent="1">
          <mxGeometry x="346" y="165" width="90" height="10" as="geometry" />
        </mxCell>
        <mxCell id="g4kfWWqlD84Wy7lia6xk-88" value="&lt;div style=&quot;text-align: left&quot;&gt;&lt;span&gt;SMMUState/SMUBaseClass&lt;/span&gt;&lt;/div&gt;" style="rounded=0;whiteSpace=wrap;html=1;fontSize=8;dashed=1;fillColor=#FFFFC0;" vertex="1" parent="1">
          <mxGeometry x="596" y="335" width="111.5" height="10" as="geometry" />
        </mxCell>
        <mxCell id="g4kfWWqlD84Wy7lia6xk-89" value="&lt;span style=&quot;text-align: left&quot;&gt;BusState/Class&lt;/span&gt;" style="rounded=0;whiteSpace=wrap;html=1;fontSize=8;dashed=1;fillColor=#FFFFC0;" vertex="1" parent="1">
          <mxGeometry x="247" y="285" width="90" height="10" as="geometry" />
        </mxCell>
        <mxCell id="g4kfWWqlD84Wy7lia6xk-90" value="&lt;span&gt;ARMCPU/Class&lt;/span&gt;" style="rounded=0;whiteSpace=wrap;html=1;fontSize=8;dashed=1;fillColor=#FFFFC0;align=left;" vertex="1" parent="1">
          <mxGeometry x="410" y="187.5" width="60" height="12.5" as="geometry" />
        </mxCell>
        <mxCell id="g4kfWWqlD84Wy7lia6xk-91" value="&lt;div style=&quot;text-align: left&quot;&gt;&lt;span&gt;CPUARMState&lt;/span&gt;&lt;/div&gt;" style="rounded=0;whiteSpace=wrap;html=1;fontSize=8;dashed=1;fillColor=#FFFFC0;" vertex="1" parent="1">
          <mxGeometry x="276" y="165" width="60" height="10" as="geometry" />
        </mxCell>
        <mxCell id="g4kfWWqlD84Wy7lia6xk-92" value="&lt;div style=&quot;text-align: left&quot;&gt;&lt;span&gt;ARMCPUInfo arm_tcg_cpus&lt;/span&gt;&lt;/div&gt;" style="rounded=0;whiteSpace=wrap;html=1;fontSize=8;dashed=1;fillColor=#f8cecc;strokeColor=#b85450;" vertex="1" parent="1">
          <mxGeometry x="285" y="70" width="105" height="10" as="geometry" />
        </mxCell>
        <mxCell id="g4kfWWqlD84Wy7lia6xk-93" value="&lt;div style=&quot;text-align: left&quot;&gt;&lt;span&gt;MemoryRegion&lt;/span&gt;&lt;/div&gt;" style="rounded=0;whiteSpace=wrap;html=1;fontSize=8;dashed=1;fillColor=#FFFFC0;" vertex="1" parent="1">
          <mxGeometry x="498.5" y="190" width="60" height="10" as="geometry" />
        </mxCell>
        <mxCell id="g4kfWWqlD84Wy7lia6xk-94" value="&lt;div style=&quot;text-align: left&quot;&gt;&lt;span&gt;MemoryRegion&lt;/span&gt;&lt;/div&gt;" style="rounded=0;whiteSpace=wrap;html=1;fontSize=8;dashed=1;fillColor=#FFFFC0;" vertex="1" parent="1">
          <mxGeometry x="568.5" y="190" width="60" height="10" as="geometry" />
        </mxCell>
        <mxCell id="g4kfWWqlD84Wy7lia6xk-95" value="&lt;div style=&quot;text-align: left&quot;&gt;&lt;span&gt;MemoryRegion&lt;/span&gt;&lt;/div&gt;" style="rounded=0;whiteSpace=wrap;html=1;fontSize=8;dashed=1;fillColor=#FFFFC0;" vertex="1" parent="1">
          <mxGeometry x="291" y="435" width="60" height="10" as="geometry" />
        </mxCell>
        <mxCell id="g4kfWWqlD84Wy7lia6xk-96" value="&lt;div style=&quot;text-align: left&quot;&gt;&lt;span&gt;MemoryRegion&lt;/span&gt;&lt;/div&gt;" style="rounded=0;whiteSpace=wrap;html=1;fontSize=8;dashed=1;fillColor=#FFFFC0;" vertex="1" parent="1">
          <mxGeometry x="390" y="435" width="60" height="10" as="geometry" />
        </mxCell>
        <mxCell id="g4kfWWqlD84Wy7lia6xk-97" value="&lt;div style=&quot;text-align: left&quot;&gt;&lt;span&gt;DeviceState&lt;/span&gt;&lt;/div&gt;" style="rounded=0;whiteSpace=wrap;html=1;fontSize=8;dashed=1;fillColor=#FFFFC0;rotation=90;" vertex="1" parent="1">
          <mxGeometry x="525.5" y="452" width="51" height="10" as="geometry" />
        </mxCell>
        <mxCell id="g4kfWWqlD84Wy7lia6xk-98" value="USB" style="rounded=0;whiteSpace=wrap;html=1;fontSize=10;" vertex="1" parent="1">
          <mxGeometry x="650" y="437.9000000000001" width="28" height="48" as="geometry" />
        </mxCell>
        <mxCell id="g4kfWWqlD84Wy7lia6xk-99" value="" style="endArrow=classic;startArrow=classic;html=1;rounded=0;fontSize=10;" edge="1" parent="1">
          <mxGeometry width="50" height="50" relative="1" as="geometry">
            <mxPoint x="583" y="402" as="sourcePoint" />
            <mxPoint x="582" y="430" as="targetPoint" />
          </mxGeometry>
        </mxCell>
        <mxCell id="g4kfWWqlD84Wy7lia6xk-100" value="" style="endArrow=classic;startArrow=classic;html=1;rounded=0;fontSize=10;entryX=0.5;entryY=0;entryDx=0;entryDy=0;" edge="1" parent="1" target="g4kfWWqlD84Wy7lia6xk-52">
          <mxGeometry width="50" height="50" relative="1" as="geometry">
            <mxPoint x="624" y="400" as="sourcePoint" />
            <mxPoint x="592.5" y="447.9000000000001" as="targetPoint" />
          </mxGeometry>
        </mxCell>
        <mxCell id="g4kfWWqlD84Wy7lia6xk-101" value="" style="endArrow=classic;startArrow=classic;html=1;rounded=0;fontSize=10;entryX=0.5;entryY=0;entryDx=0;entryDy=0;exitX=0.835;exitY=1.05;exitDx=0;exitDy=0;exitPerimeter=0;" edge="1" parent="1" source="g4kfWWqlD84Wy7lia6xk-50" target="g4kfWWqlD84Wy7lia6xk-98">
          <mxGeometry width="50" height="50" relative="1" as="geometry">
            <mxPoint x="630.1007500000001" y="410" as="sourcePoint" />
            <mxPoint x="634" y="447.9000000000001" as="targetPoint" />
          </mxGeometry>
        </mxCell>
        <mxCell id="g4kfWWqlD84Wy7lia6xk-102" value="&lt;div style=&quot;text-align: left&quot;&gt;&lt;span&gt;MemoryRegion&lt;/span&gt;&lt;/div&gt;" style="rounded=0;whiteSpace=wrap;html=1;fontSize=8;dashed=1;fillColor=#FFFFC0;" vertex="1" parent="1">
          <mxGeometry x="65" y="420" width="60" height="10" as="geometry" />
        </mxCell>
        <mxCell id="g4kfWWqlD84Wy7lia6xk-103" value="&lt;div style=&quot;text-align: left&quot;&gt;&lt;span&gt;MemoryRegion&lt;/span&gt;&lt;/div&gt;" style="rounded=0;whiteSpace=wrap;html=1;fontSize=8;dashed=1;fillColor=#FFFFC0;" vertex="1" parent="1">
          <mxGeometry x="155" y="420" width="60" height="10" as="geometry" />
        </mxCell>
        <mxCell id="g4kfWWqlD84Wy7lia6xk-104" value="&lt;div style=&quot;text-align: left&quot;&gt;STM32F2XXUsartState&lt;br&gt;&lt;/div&gt;" style="rounded=0;whiteSpace=wrap;html=1;fontSize=8;dashed=1;fillColor=#FFFFC0;" vertex="1" parent="1">
          <mxGeometry x="790" y="155.5" width="90" height="10" as="geometry" />
        </mxCell>
        <mxCell id="g4kfWWqlD84Wy7lia6xk-105" value="SysBusDevice/Class" style="rounded=0;whiteSpace=wrap;html=1;fontSize=8;dashed=1;fillColor=#FFFFC0;" vertex="1" parent="1">
          <mxGeometry x="730" y="137.5" width="82.5" height="10" as="geometry" />
        </mxCell>
        <mxCell id="g4kfWWqlD84Wy7lia6xk-106" value="SysBusDevice/Class" style="rounded=0;whiteSpace=wrap;html=1;fontSize=8;dashed=1;fillColor=#FFFFC0;" vertex="1" parent="1">
          <mxGeometry x="498.5" y="330" width="82.5" height="10" as="geometry" />
        </mxCell>
        <mxCell id="g4kfWWqlD84Wy7lia6xk-107" value="" style="endArrow=classic;startArrow=classic;html=1;fontSize=12;exitX=0.5;exitY=0;exitDx=0;exitDy=0;entryX=0.069;entryY=1.197;entryDx=0;entryDy=0;entryPerimeter=0;" edge="1" parent="1" source="g4kfWWqlD84Wy7lia6xk-17" target="g4kfWWqlD84Wy7lia6xk-50">
          <mxGeometry width="50" height="50" relative="1" as="geometry">
            <mxPoint x="470" y="580" as="sourcePoint" />
            <mxPoint x="520" y="530" as="targetPoint" />
          </mxGeometry>
        </mxCell>
        <mxCell id="g4kfWWqlD84Wy7lia6xk-108" value="DeviceState/Class" style="rounded=0;whiteSpace=wrap;html=1;fontSize=8;dashed=1;fillColor=#FFFFC0;" vertex="1" parent="1">
          <mxGeometry x="628.5" y="410" width="82.5" height="10" as="geometry" />
        </mxCell>
        <mxCell id="g4kfWWqlD84Wy7lia6xk-109" value="USBDevice/Class" style="rounded=0;whiteSpace=wrap;html=1;fontSize=8;dashed=1;fillColor=#FFFFC0;rotation=90;" vertex="1" parent="1">
          <mxGeometry x="647.5" y="447.5" width="70" height="10" as="geometry" />
        </mxCell>
        <mxCell id="g4kfWWqlD84Wy7lia6xk-110" value="PCIDeviceDevice/Class&lt;br&gt;PCIExpressDevice" style="rounded=0;whiteSpace=wrap;html=1;fontSize=8;dashed=1;fillColor=#FFFFC0;rotation=0;" vertex="1" parent="1">
          <mxGeometry x="539.5" y="500" width="86" height="20" as="geometry" />
        </mxCell>
        <mxCell id="g4kfWWqlD84Wy7lia6xk-111" value="&lt;div style=&quot;text-align: left&quot;&gt;&lt;span&gt;QTAILQ device_listeners&lt;/span&gt;&lt;/div&gt;" style="rounded=0;whiteSpace=wrap;html=1;fontSize=8;dashed=1;fillColor=#f8cecc;strokeColor=#b85450;" vertex="1" parent="1">
          <mxGeometry x="77" y="285" width="103" height="10" as="geometry" />
        </mxCell>
        <mxCell id="g4kfWWqlD84Wy7lia6xk-112" value="&lt;div style=&quot;text-align: left&quot;&gt;CMSDKAPBWatchdog&lt;br&gt;&lt;/div&gt;" style="rounded=0;whiteSpace=wrap;html=1;fontSize=8;dashed=1;fillColor=#FFFFC0;" vertex="1" parent="1">
          <mxGeometry x="790" y="193.75" width="90" height="10" as="geometry" />
        </mxCell>
        <mxCell id="g4kfWWqlD84Wy7lia6xk-113" value="&lt;div style=&quot;text-align: left&quot;&gt;STM32F2XXTimerState&lt;br&gt;&lt;/div&gt;" style="rounded=0;whiteSpace=wrap;html=1;fontSize=8;dashed=1;fillColor=#FFFFC0;" vertex="1" parent="1">
          <mxGeometry x="790" y="230" width="90" height="10" as="geometry" />
        </mxCell>
        <mxCell id="g4kfWWqlD84Wy7lia6xk-114" value="&lt;div style=&quot;text-align: left&quot;&gt;STM32F2XXSPIState&lt;br&gt;&lt;/div&gt;" style="rounded=0;whiteSpace=wrap;html=1;fontSize=8;dashed=1;fillColor=#FFFFC0;" vertex="1" parent="1">
          <mxGeometry x="790" y="270" width="90" height="10" as="geometry" />
        </mxCell>
        <mxCell id="g4kfWWqlD84Wy7lia6xk-115" value="" style="shape=flexArrow;endArrow=classic;startArrow=classic;html=1;rounded=0;fontSize=10;width=5;endSize=2.6083333333333334;endWidth=18.055555555555554;startWidth=18.055555555555554;startSize=2.6083333333333334;" edge="1" parent="1">
          <mxGeometry width="100" height="100" relative="1" as="geometry">
            <mxPoint x="800" y="355" as="sourcePoint" />
            <mxPoint x="800" y="305" as="targetPoint" />
          </mxGeometry>
        </mxCell>
        <mxCell id="g4kfWWqlD84Wy7lia6xk-116" value="I2CBus" style="edgeLabel;html=1;align=center;verticalAlign=middle;resizable=0;points=[];fontSize=10;" vertex="1" connectable="0" parent="g4kfWWqlD84Wy7lia6xk-115">
          <mxGeometry x="-0.0987" y="-2" relative="1" as="geometry">
            <mxPoint y="-2" as="offset" />
          </mxGeometry>
        </mxCell>
        <mxCell id="g4kfWWqlD84Wy7lia6xk-117" value="&lt;div style=&quot;text-align: left&quot;&gt;AspeedI2CBus&lt;br&gt;&lt;/div&gt;" style="rounded=0;whiteSpace=wrap;html=1;fontSize=8;dashed=1;fillColor=#FFFFC0;" vertex="1" parent="1">
          <mxGeometry x="770" y="315" width="60" height="10" as="geometry" />
        </mxCell>
        <mxCell id="g4kfWWqlD84Wy7lia6xk-118" value="" style="endArrow=classic;startArrow=classic;html=1;rounded=0;fontSize=10;entryX=0;entryY=0.75;entryDx=0;entryDy=0;" edge="1" parent="1" target="g4kfWWqlD84Wy7lia6xk-44">
          <mxGeometry width="50" height="50" relative="1" as="geometry">
            <mxPoint x="810" y="328" as="sourcePoint" />
            <mxPoint x="797" y="185" as="targetPoint" />
          </mxGeometry>
        </mxCell>
        <mxCell id="g4kfWWqlD84Wy7lia6xk-119" value="I2C" style="rounded=0;whiteSpace=wrap;html=1;fontSize=10;horizontal=1;" vertex="1" parent="1">
          <mxGeometry x="840" y="335" width="60" height="10" as="geometry" />
        </mxCell>
        <mxCell id="g4kfWWqlD84Wy7lia6xk-120" value="" style="endArrow=classic;startArrow=classic;html=1;rounded=0;fontSize=10;entryX=0;entryY=0.5;entryDx=0;entryDy=0;" edge="1" parent="1" target="g4kfWWqlD84Wy7lia6xk-119">
          <mxGeometry width="50" height="50" relative="1" as="geometry">
            <mxPoint x="810" y="340" as="sourcePoint" />
            <mxPoint x="807" y="195" as="targetPoint" />
          </mxGeometry>
        </mxCell>
        <mxCell id="g4kfWWqlD84Wy7lia6xk-121" value="&lt;div style=&quot;text-align: left&quot;&gt;AspeedI2CState/Class&lt;br&gt;&lt;/div&gt;" style="rounded=0;whiteSpace=wrap;html=1;fontSize=8;dashed=1;fillColor=#FFFFC0;" vertex="1" parent="1">
          <mxGeometry x="830" y="305" width="90" height="10" as="geometry" />
        </mxCell>
        <mxCell id="g4kfWWqlD84Wy7lia6xk-122" value="PCIBus" style="shape=flexArrow;endArrow=classic;startArrow=classic;html=1;rounded=0;fontSize=10;width=5;endSize=2.6083333333333334;endWidth=18.055555555555554;startWidth=18.055555555555554;startSize=2.6083333333333334;" edge="1" parent="1">
          <mxGeometry width="100" height="100" relative="1" as="geometry">
            <mxPoint x="558.5" y="432.48" as="sourcePoint" />
            <mxPoint x="620" y="432" as="targetPoint" />
          </mxGeometry>
        </mxCell>
        <mxCell id="g4kfWWqlD84Wy7lia6xk-123" value="" style="endArrow=classic;startArrow=classic;html=1;rounded=0;fontSize=10;entryX=0.5;entryY=0;entryDx=0;entryDy=0;" edge="1" parent="1" target="g4kfWWqlD84Wy7lia6xk-23">
          <mxGeometry width="50" height="50" relative="1" as="geometry">
            <mxPoint x="583" y="440" as="sourcePoint" />
            <mxPoint x="592" y="440" as="targetPoint" />
          </mxGeometry>
        </mxCell>
        <mxCell id="g4kfWWqlD84Wy7lia6xk-124" value="PCIBus/Class" style="rounded=0;whiteSpace=wrap;html=1;fontSize=8;dashed=1;fillColor=#FFFFC0;" vertex="1" parent="1">
          <mxGeometry x="557.5" y="415" width="62.5" height="10" as="geometry" />
        </mxCell>
        <mxCell id="g4kfWWqlD84Wy7lia6xk-125" value="&lt;div style=&quot;text-align: left&quot;&gt;AspeedGPIOState/Class&lt;br&gt;&lt;/div&gt;" style="rounded=0;whiteSpace=wrap;html=1;fontSize=8;dashed=1;fillColor=#FFFFC0;" vertex="1" parent="1">
          <mxGeometry x="790" y="380" width="90" height="10" as="geometry" />
        </mxCell>
        <mxCell id="g4kfWWqlD84Wy7lia6xk-126" value="&lt;div style=&quot;text-align: left&quot;&gt;qemu_mdio&lt;br&gt;&lt;/div&gt;" style="rounded=0;whiteSpace=wrap;html=1;fontSize=8;dashed=1;fillColor=#FFFFC0;" vertex="1" parent="1">
          <mxGeometry x="790" y="455" width="60" height="10" as="geometry" />
        </mxCell>
        <mxCell id="g4kfWWqlD84Wy7lia6xk-127" value="MemoryRegion *system_io" style="rounded=0;whiteSpace=wrap;html=1;fontSize=8;dashed=1;fillColor=#f8cecc;strokeColor=#b85450;" vertex="1" parent="1">
          <mxGeometry x="740.5" y="112.5" width="119" height="10" as="geometry" />
        </mxCell>
        <mxCell id="g4kfWWqlD84Wy7lia6xk-128" value="MemoryRegion *system_memory" style="rounded=0;whiteSpace=wrap;html=1;fontSize=8;dashed=1;fillColor=#f8cecc;strokeColor=#b85450;" vertex="1" parent="1">
          <mxGeometry x="596.5" y="112.5" width="128" height="10" as="geometry" />
        </mxCell>
        <mxCell id="g4kfWWqlD84Wy7lia6xk-129" value="RAMList ram_list" style="rounded=0;whiteSpace=wrap;html=1;fontSize=8;dashed=1;fillColor=#f8cecc;strokeColor=#b85450;" vertex="1" parent="1">
          <mxGeometry x="290" y="500" width="88" height="10" as="geometry" />
        </mxCell>
        <mxCell id="g4kfWWqlD84Wy7lia6xk-130" value="RAMList ram_list" style="rounded=0;whiteSpace=wrap;html=1;fontSize=8;dashed=1;fillColor=#f8cecc;strokeColor=#b85450;" vertex="1" parent="1">
          <mxGeometry x="290" y="500" width="88" height="10" as="geometry" />
        </mxCell>
        <mxCell id="g4kfWWqlD84Wy7lia6xk-131" value="RAMBlock" style="rounded=0;whiteSpace=wrap;html=1;fontSize=8;dashed=1;fillColor=#FFFFC0;" vertex="1" parent="1">
          <mxGeometry x="291" y="470" width="40" height="10" as="geometry" />
        </mxCell>
        <mxCell id="g4kfWWqlD84Wy7lia6xk-132" value="RAMBlock" style="rounded=0;whiteSpace=wrap;html=1;fontSize=8;dashed=1;fillColor=#FFFFC0;" vertex="1" parent="1">
          <mxGeometry x="290" y="480" width="40" height="10" as="geometry" />
        </mxCell>
        <mxCell id="g4kfWWqlD84Wy7lia6xk-133" value="RAMBlock" style="rounded=0;whiteSpace=wrap;html=1;fontSize=8;dashed=1;fillColor=#FFFFC0;" vertex="1" parent="1">
          <mxGeometry x="391" y="470" width="40" height="10" as="geometry" />
        </mxCell>
        <mxCell id="g4kfWWqlD84Wy7lia6xk-134" value="RAMBlock" style="rounded=0;whiteSpace=wrap;html=1;fontSize=8;dashed=1;fillColor=#FFFFC0;" vertex="1" parent="1">
          <mxGeometry x="390" y="480" width="40" height="10" as="geometry" />
        </mxCell>
        <mxCell id="g4kfWWqlD84Wy7lia6xk-135" value="AddressSpace address_space_io" style="rounded=0;whiteSpace=wrap;html=1;fontSize=8;dashed=1;fillColor=#f8cecc;strokeColor=#b85450;" vertex="1" parent="1">
          <mxGeometry x="740.5" y="97.5" width="139.5" height="10" as="geometry" />
        </mxCell>
        <mxCell id="g4kfWWqlD84Wy7lia6xk-136" value="AddressSpace address_space_memory" style="rounded=0;whiteSpace=wrap;html=1;fontSize=8;dashed=1;fillColor=#f8cecc;strokeColor=#b85450;" vertex="1" parent="1">
          <mxGeometry x="580" y="97.5" width="144.5" height="10" as="geometry" />
        </mxCell>
        <mxCell id="g4kfWWqlD84Wy7lia6xk-137" value="CPUAddressSpace" style="rounded=0;whiteSpace=wrap;html=1;fontSize=8;dashed=1;fillColor=#FFFFC0;align=left;" vertex="1" parent="1">
          <mxGeometry x="330" y="180" width="70" height="12.5" as="geometry" />
        </mxCell>
      </root>
    </mxGraphModel>
  </diagram>
</mxfile>
